# xmcd
#
# Track frame offsets: 
#        150
#        17800
#        38180
#        53950
#        65162
#        88455
#        111500
#        126435
#        138325
#        147670
#        165695
#        174860
#        185295
#        199510
#        227290
#        244915
#        259500
#        274575
#        284155
#        301095
#
# Disc length: 4296 seconds
#
# Revision: 0
# Processed by: cddbd v1.5.1PL2 Copyright (c) Steve Scherf et al.
# Submitted via: ExactAudioCopy v0.95b4
#
DISCID=2d10c614
DTITLE=Kirkkonummen kamarikuoro - Te kaikki kansat tulkaa - Taizé-laul
DTITLE=uja
DYEAR=1995
DGENRE=Gospel
TTITLE0=Te kaikki kansat tulkaa
TTITLE1=Herramme Kristus
TTITLE2=Laulakaa Herralle uusi laulu
TTITLE3=Niin loistat Kristus
TTITLE4=Meidän sielumme
TTITLE5=Jeesus Kristus, elämän sana
TTITLE6=Saavu henki taivaasta
TTITLE7=Armahda Herra minua
TTITLE8=Odota nyt Herraasi
TTITLE9=Yömme pimeyteen
TTITLE10=Herra, kenen luo me voisimme mennä?
TTITLE11=Ylistäkää Herraa!
TTITLE12=Oi Kristus, Herra Jeesus
TTITLE13=Tule, Pyhä Henki
TTITLE14=Rauhasi anna, oi Herra
TTITLE15=Me yössä kuljemme
TTITLE16=Vain Herra lamppuni on
TTITLE17=Kunnia Sinulle, Herra
TTITLE18=Herraa kiittäkää
TTITLE19=Anna meille rauha, Herra
EXTD=
EXTT0=
EXTT1=
EXTT2=
EXTT3=
EXTT4=
EXTT5=
EXTT6=
EXTT7=
EXTT8=
EXTT9=
EXTT10=
EXTT11=
EXTT12=
EXTT13=
EXTT14=
EXTT15=
EXTT16=
EXTT17=
EXTT18=
EXTT19=
PLAYORDER=
